<svg xmlns="http://www.w3.org/2000/svg" viewBox="-16 -16 192 80" width="160" height="48">
  <defs>
    <linearGradient id="glass" x1="0%" y1="0%" x2="100%" y2="100%">
      <stop offset="0%" stop-color="#ffffff" stop-opacity="0.08" />
      <stop offset="100%" stop-color="#ffffff" stop-opacity="0.02" />
    </linearGradient>
    <linearGradient id="border" x1="0%" y1="0%" x2="100%" y2="100%">
      <stop offset="0%" stop-color="#FDE047" stop-opacity="0.5" />
      <stop offset="100%" stop-color="#D97706" stop-opacity="0.1" />
    </linearGradient>
    <filter id="glow">
      <feGaussianBlur stdDeviation="8" />
    </filter>
  </defs>

  <rect width="158" height="46" x="1" y="1" rx="23" fill="transparent" />
  <rect width="160" height="48" rx="24" fill="url(#border)" filter="url(#glow)" opacity="0.3" />
  <rect width="158" height="46" x="1" y="1" rx="23" fill="url(#glass)" stroke="url(#border)" stroke-width="1.5" />
  
  <!-- LinkedIn Icon -->
  <path d="M42,20 v12 h3 v-12 h-3 z M43.5,15 c-1,0 -1.5,0.6 -1.5,1.5 c0,0.8 0.5,1.5 1.5,1.5 c1,0 1.5,-0.6 1.5,-1.5 c0,-0.8 -0.5,-1.5 -1.5,-1.5 z M47,20 v12 h3 v-6.5 c0,-1.8 1,-2.5 2,-2.5 c1.2,0 2,0.8 2,2.5 v6.5 h3 v-7 c0,-3 -1.5,-4.5 -4,-4.5 c-1.5,0 -2.5,0.8 -3,1.5 v-1.5 h-3 z" fill="#EDEDED" />
  
  <text x="68" y="29" font-family="-apple-system, BlinkMacSystemFont, 'Segoe UI', Roboto, sans-serif" font-size="14" fill="#EDEDED" font-weight="500">LinkedIn</text>
</svg>
